<?xml version="1.0" encoding="UTF-8"?>
<svg id="Ebene_1" xmlns="http://www.w3.org/2000/svg" viewBox="0 0 2000 2000">
    <path d="m1420.56,479.14c.82-4.14,4.94-7.71,9.18-7.97l105.89-6.16c4.19-.27,7.03,2.94,6.3,7.09l-42.26,232.94c-.74,4.19-4.85,4.99-9.03,4.82l-66.74.03c-4.23-.15-6.9-3.62-5.93-7.74l43.47-186.13c.99-4.12-1.66-7.87-5.87-8.37l-32.29-3.8c-4.15-.5-6.92-4.31-6.08-8.45l3.35-16.27Z" style="fill:#3c3c3b;"/>
    <path d="m367.61,1281.55c-6.74.73-10.39-1.18-13.22-5.19-1.78-2.54-2.42-6.72-2.81-9.61-1-7.35-2.96-39.03-3.01-40.32-.26-6.77-.37-13.93-.08-17.84.29-3.94,3.85-10.52,10.78-17.53l71.85-64.01c4.46-3.96,3.22-6.88-2.68-6.5l-22.43,1.41c-5.9.36-10.63-4.2-10.52-10.15l1.34-62.89c.15-5.91,1.33-13.65,2.62-17.16,1.33-3.51,12.78-11.2,17.76-14.43,0,0,171.44-112.76,171.68-112.89,6.42-4.2,16.76-8.1,23.72-3.09,11.12,8,4.2,24-2.75,32.97l-49.3,63.27c-3.62,4.7-1.76,8.9,4.14,9.37l23.67,1.97c5.87.47,9.66,5.61,8.39,11.34l-41.51,202.03c-1.2,5.8-6.85,11.75-12.56,13.23l-161.32,42.68c-5.67,1.55-12.81,3.26-13.75,3.35" style="fill:#3c3c3b;"/>
    <path d="m604.06,1296.95c-13.67-1.29-14.17-14.09-12.49-26.15l89.48-422.16c1.6-6.71,5.8-10.92,14.77-14.72l143.32-65.83c7.79-2.49,13.27-1.44,18.02,1.37,5.67,3.33,6.95,10.02,9.16,17.89l47.83,192.25c2.04,9.66.94,20.7-15.71,24.68l-105.1,29.39c-7.98,2.73-12.8,7.27-15.93,12.33,0,0-140.35,228.03-144.32,233.18-9.81,12.73-18.07,18.76-29.02,17.76" style="fill:#3c3c3b;"/>
    <path d="m1642.31,1266.3l-107.49-268.66-25.9-225.86c-1.2-7.5-2.17-23.58-18.23-23.58h-214.25c-13.91-.05-20.28,5.69-22.14,18.89l-40.42,206.25-60.73,293.75c-2.6,11.94-2.07,28.57,11.6,29.86,10.96,1,17.71-3.39,26.71-13.27.52-.55,158.53-224.04,158.53-224.04,0,0,62.86-81.66,63.67-82.2.86-.55,2.29.19,2.04,1.16-.24.97-14.54,58.47-14.54,58.47,0,0-2.81,11.3,4.73,20.3,28.62,34.05,150.37,175.9,187.61,217.2,7.39,8.19,11.89,12.09,12.51,12.54,10.58,8.16,18.07,11.57,28.59,8.39,10.46-3.18,12.38-17.87,7.71-29.2" style="fill:#3c3c3b;"/>
    <path d="m1185.86,748.11c15.74,0,23.09,7.13,19.86,21.86l-29.64,146.02c-1.94,9.84-7.74,15.59-19.12,18.44l-176.95,46.48c-14.33,4.17-18.42-6.06-19.8-11.78,0,0-50.6-201.75-50.76-202.45-2.1-8.32,4.75-16.35,12.39-17.6,8-1.29,16.26,1.24,23.95,3.07,22.32,5.28,45.3,8.95,68.15,11.13,15.46,1.47,31.22,2.15,46.77,1.5,45.64-1.91,125.14-16.68,125.14-16.68" style="fill:#3c3c3b;"/>
</svg>