<?xml version="1.0" encoding="utf-8"?>
<svg viewBox="1124.1538 176.0722 1303.9998 836.9778" xmlns="http://www.w3.org/2000/svg">
  <path d="M 2202.686 190.302 C 2203.513 186.137 2207.656 182.546 2211.921 182.286 L 2318.432 176.088 C 2322.646 175.818 2325.503 179.045 2324.77 183.218 L 2282.26 417.525 C 2281.518 421.74 2277.385 422.546 2273.178 422.376 L 2206.048 422.406 C 2201.794 422.255 2199.108 418.763 2200.081 414.62 L 2243.808 227.397 C 2244.805 223.252 2242.139 219.481 2237.902 218.979 L 2205.423 215.156 C 2201.249 214.654 2198.462 210.821 2199.31 206.655 L 2202.676 190.292 L 2202.686 190.302 Z" style="fill: rgb(60, 60, 59);"/>
  <path d="M 1143.56 997.419 C 1136.78 998.156 1133.109 996.232 1130.262 992.198 C 1128.471 989.644 1127.829 985.44 1127.437 982.535 C 1126.429 975.14 1124.456 943.272 1124.406 941.974 C 1124.146 935.165 1124.036 927.965 1124.326 924.032 C 1124.618 920.069 1128.199 913.452 1135.169 906.398 L 1207.443 842.013 C 1211.928 838.03 1210.68 835.091 1204.747 835.475 L 1182.186 836.893 C 1176.25 837.254 1171.492 832.669 1171.602 826.683 L 1172.95 763.426 C 1173.103 757.48 1174.287 749.695 1175.585 746.162 C 1176.923 742.635 1188.441 734.899 1193.449 731.648 C 1193.449 731.648 1365.895 618.227 1366.139 618.097 C 1372.597 613.873 1382.998 609.95 1389.998 614.989 C 1401.181 623.036 1394.221 639.128 1387.231 648.151 L 1337.641 711.793 C 1334.001 716.523 1335.87 720.745 1341.806 721.217 L 1365.613 723.2 C 1371.519 723.673 1375.332 728.843 1374.054 734.605 L 1332.301 937.82 C 1331.093 943.656 1325.41 949.64 1319.667 951.127 L 1157.402 994.058 C 1151.696 995.621 1144.515 997.339 1143.57 997.429" style="fill: rgb(60, 60, 59);"/>
  <path d="M 1381.396 1012.91 C 1367.646 1011.612 1367.143 998.736 1368.834 986.607 L 1458.839 561.969 C 1460.448 555.22 1464.671 550.986 1473.695 547.164 L 1617.857 480.948 C 1625.692 478.443 1631.205 479.498 1635.983 482.325 C 1641.686 485.673 1642.973 492.404 1645.196 500.32 L 1693.309 693.698 C 1695.358 703.413 1694.25 714.519 1677.503 718.522 L 1571.786 748.085 C 1563.759 750.831 1558.911 755.396 1555.764 760.486 C 1555.764 760.486 1414.591 989.854 1410.597 995.035 C 1400.729 1007.84 1392.422 1013.907 1381.406 1012.9" style="fill: rgb(60, 60, 59);"/>
  <path d="M 2425.738 982.079 L 2317.617 711.844 L 2291.565 484.658 C 2290.36 477.115 2289.384 460.94 2273.228 460.94 L 2057.722 460.94 C 2043.73 460.888 2037.322 466.664 2035.452 479.94 L 1994.795 687.4 L 1933.708 982.875 C 1931.093 994.885 1931.625 1011.612 1945.377 1012.91 C 1956.4 1013.917 1963.193 1009.498 1972.244 999.563 C 1972.767 999.008 2131.703 774.207 2131.703 774.207 C 2131.703 774.207 2194.931 692.068 2195.747 691.524 C 2196.615 690.972 2198.051 691.718 2197.8 692.69 C 2197.557 693.668 2183.172 751.504 2183.172 751.504 C 2183.172 751.504 2180.347 762.871 2187.932 771.924 C 2216.719 806.173 2339.184 948.856 2376.644 990.401 C 2384.075 998.636 2388.603 1002.559 2389.225 1003.01 C 2399.868 1011.222 2407.401 1014.649 2417.983 1011.451 C 2428.503 1008.251 2430.436 993.476 2425.738 982.079" style="fill: rgb(60, 60, 59);"/>
  <path d="M 1966.61 460.848 C 1982.442 460.848 1989.835 468.022 1986.588 482.837 L 1956.774 629.715 C 1954.821 639.615 1948.988 645.396 1937.541 648.262 L 1759.551 695.015 C 1745.138 699.208 1741.024 688.918 1739.636 683.167 C 1739.636 683.167 1688.739 480.231 1688.578 479.528 C 1686.465 471.158 1693.358 463.081 1701.04 461.824 C 1709.089 460.526 1717.397 463.071 1725.132 464.914 C 1747.582 470.225 1770.698 473.914 1793.684 476.107 C 1809.232 477.585 1825.086 478.272 1840.727 477.616 C 1886.634 475.696 1966.6 460.838 1966.6 460.838" style="fill: rgb(60, 60, 59);"/>
</svg>